<?xml version="1.0" encoding="utf-8"?>
<!-- Generator: Adobe Illustrator 19.0.0, SVG Export Plug-In . SVG Version: 6.00 Build 0)  -->
<svg version="1.1" id="圖層_1" xmlns="http://www.w3.org/2000/svg" xmlns:xlink="http://www.w3.org/1999/xlink" x="0px" y="0px"
	 viewBox="0 0 26 32" style="enable-background:new 0 0 26 32;" xml:space="preserve">
<style type="text/css">
	.st0{fill:#3D1101;}
</style>
<g>
	<path class="st0" d="M19.4,0c0.6,0.9,1,1.6,1.5,2.3c2.3,3.8,4.2,7.8,4.8,12.2c0.8,5.5-0.1,10.5-4.2,14.5c-2,1.9-4.4,2.9-7.2,2.1
		c-1.1-0.4-2.1-1.2-3.3-1.9c2.6-2.7,4.6-5.4,5.8-8.7c1.2-3.3,1.5-6.5,0.6-10.3c-0.3,0.6-0.5,0.9-0.7,1.2c-2.2,4.5-5,8.6-8.9,11.8
		c-0.6,0.5-1.3,0.9-1.9,1.4c-0.9,0.8-1.6,0.5-2.5-0.2c-2.8-2.3-3.7-6.1-2.3-9.6c1.4-3.6,4.1-5.9,7.6-7.4C9,7.3,9.1,7.2,9.3,7.2
		C13.5,6.1,17.3,4.3,19.4,0z"/>
	<path class="st0" d="M15.5,18.1c-2.4,5.5-5.8,10.1-11,13.2c-0.8,0.5-2,0.7-3,0.7c-0.8,0.1-1.3-0.6-1.5-1.4
		C6.6,28.1,11.5,23.8,15.5,18.1z"/>
</g>
</svg>
